# xmcd CD database file
#
# Track frame offsets:
#	150
#	12871
#	23658
#	41811
#	57968
#	71066
#	89487
#	105510
#	118922
#	134448
#	149133
#	160294
#	174019
#	183922
#	202928
#	213069
#	224395
#	235450
#	247213
#	256546
#	267078
#	280880
#
# Disc length: 3894 seconds
#
# Revision: 0
# Processed by: cddbd v1.5.2PL0 Copyright (c) Steve Scherf et al.
# Submitted via: CDex 1.70beta2
#
DISCID=440f3416
DTITLE=Orchestra del sol - Salsa - Biguine - Zouk - Mambo
DYEAR=1900
DGENRE=Merengue
TTITLE0=Ba moin un tibo
TTITLE1=Sans chemise sans pantalon
TTITLE2=Sonero de bario
TTITLE3=San Cristobal
TTITLE4=Fiesta carnaval
TTITLE5=Vive les vacances
TTITLE6=Nuevo mambo
TTITLE7=Mambo mambo
TTITLE8=Spanish zouk
TTITLE9=Salsa two
TTITLE10=Maladie d'amour
TTITLE11=Vive le douanier Rousseau
TTITLE12=Mambo Italiano
TTITLE13=C'est bon pour le moral
TTITLE14=Petite fleur fanée
TTITLE15=Bonsoir dame
TTITLE16=Adieu foulards adieu madras
TTITLE17=Joli babanier
TTITLE18=Ti zouk
TTITLE19=Biguine à danser
TTITLE20=Basse terre
TTITLE21=Zouky balanga
EXTD=
EXTT0=
EXTT1=
EXTT2=
EXTT3=
EXTT4=
EXTT5=
EXTT6=
EXTT7=
EXTT8=
EXTT9=
EXTT10=
EXTT11=
EXTT12=
EXTT13=
EXTT14=
EXTT15=
EXTT16=
EXTT17=
EXTT18=
EXTT19=
EXTT20=
EXTT21=
PLAYORDER=
